name processed_emg_signals						
nRows=142						
nColumns=7						
 						
endheader						
time	LGLTMED	LRF	LADDLONG	LST	LTA	LGM
0	0.011812404	0.004254948	0.016338472	0.067495219	0.032953721	4.08E-05
0.001	0.012545217	0.001535001	0.014506947	0.091060912	0.027985198	0.001487571
0.002	0.013276236	0.001194725	0.012673649	0.114569641	0.022941149	0.003021942
0.003	0.01400504	0.003932921	0.010839491	0.13800544	0.017822059	0.00456161
0.004	0.014731217	0.006678269	0.009005385	0.161352372	0.012628434	0.006105841
0.005	0.015454368	0.009429449	0.007172239	0.184594557	0.007360794	0.007653901
0.006	0.016174105	0.012185137	0.005340955	0.207716191	0.002019681	0.009205056
0.007	0.016890051	0.014944008	0.003512431	0.230701568	0.003394348	0.010758569
0.008	0.017601846	0.017704738	0.001687555	0.253535103	0.008880719	0.012313708
0.009	0.018309144	0.020466003	0.000132789	0.276201354	0.014438842	0.013869743
0.01	0.019011612	0.023226482	0.00194773	0.298685041	0.020068112	0.015425945
0.011	0.019708938	0.025984859	0.003756404	0.320971067	0.025767905	0.016981592
0.012	0.020400825	0.028739824	0.00555796	0.343044539	0.031537583	0.018535965
0.013	0.021086996	0.031490074	0.007351557	0.36489079	0.037376493	0.020088351
0.014	0.021767193	0.034234316	0.009136367	0.386495394	0.043283963	0.021638045
0.015	0.022441177	0.036971265	0.010911577	0.407844185	0.049259306	0.023184347
0.016	0.023108732	0.039699647	0.012676385	0.428923278	0.055301819	0.024726569
0.017	0.023769661	0.042418203	0.014430007	0.449719086	0.061410778	0.026264027
0.018	0.024423791	0.045125686	0.016171671	0.470218333	0.067585444	0.027796049
0.019	0.025070973	0.047820864	0.017900625	0.490408072	0.073825056	0.029321975
0.02	0.025711078	0.050502521	0.01961613	0.510275702	0.080128834	0.030841152
0.021	0.026344002	0.053169459	0.021317465	0.529808979	0.086495978	0.032352941
0.022	0.026969667	0.055820496	0.023003929	0.548996034	0.092925665	0.033856714
0.023	0.027588018	0.058454473	0.024674835	0.567825379	0.099417048	0.035351856
0.024	0.028199024	0.061070247	0.026329517	0.586285929	0.105969256	0.036837764
0.025	0.028802682	0.063666698	0.027967328	0.604367004	0.112581393	0.038313849
0.026	0.029399011	0.066242729	0.029587638	0.622058345	0.119252534	0.039779535
0.027	0.029988057	0.068797263	0.031189838	0.639350123	0.125981727	0.041234261
0.028	0.030569892	0.071329249	0.032773338	0.656232946	0.132767987	0.04267748
0.029	0.031144613	0.073837659	0.034337567	0.67269787	0.139610302	0.04410866
0.03	0.031712343	0.076321489	0.035881976	0.688736407	0.146507621	0.045527284
0.031	0.032273229	0.078779763	0.037406033	0.704340528	0.153458863	0.04693285
0.032	0.032827444	0.081211528	0.038909229	0.719502672	0.160462907	0.048324872
0.033	0.033375187	0.083615859	0.040391073	0.734215754	0.167518597	0.04970288
0.034	0.033916681	0.08599186	0.041851097	0.748473163	0.174624736	0.051066418
0.035	0.034452173	0.088338658	0.04328885	0.762268772	0.181780086	0.052415049
0.036	0.034981935	0.090655412	0.044703904	0.775596941	0.188983367	0.053748349
0.037	0.035506263	0.092941306	0.046095851	0.788452515	0.196233254	0.055065913
0.038	0.036025473	0.095195556	0.047464301	0.800830831	0.203528378	0.056367349
0.039	0.036539909	0.097417404	0.048808887	0.812727716	0.210867325	0.057652286
0.04	0.037049932	0.099606122	0.05012926	0.824139489	0.21824863	0.058920364
0.041	0.037555927	0.101761011	0.051425092	0.835062961	0.225670783	0.060171243
0.042	0.038058299	0.103881403	0.052696075	0.845495433	0.23313222	0.061404598
0.043	0.038557473	0.105966656	0.053941921	0.855434697	0.24063133	0.062620119
0.044	0.039053895	0.108016161	0.05516236	0.864879029	0.248166449	0.063817516
0.045	0.039548026	0.110029339	0.056357143	0.87382719	0.255735861	0.06499651
0.046	0.040040347	0.112005637	0.057526039	0.882278422	0.263337798	0.066156841
0.047	0.040531355	0.113944536	0.058668837	0.890232442	0.270970436	0.067298263
0.048	0.041021563	0.115845546	0.059785344	0.897689438	0.2786319	0.068420549
0.049	0.041511498	0.117708204	0.060875387	0.904650063	0.286320262	0.069523482
0.05	0.042001701	0.11953208	0.06193881	0.911115431	0.294033536	0.070606866
0.051	0.042492727	0.121316774	0.062975476	0.917087105	0.301769686	0.071670515
0.052	0.042985141	0.123061914	0.063985265	0.922567095	0.309526619	0.072714262
0.053	0.043479518	0.124767159	0.064968076	0.927557846	0.317302191	0.073737951
0.054	0.043976445	0.126432197	0.065923823	0.93206223	0.325094202	0.074741443
0.055	0.044476515	0.128056746	0.066852441	0.93608354	0.332900402	0.075724611
0.056	0.044980329	0.129640554	0.067753879	0.939625473	0.340718486	0.076687344
0.057	0.045488493	0.131183399	0.068628105	0.942692128	0.348546099	0.077629543
0.058	0.046001619	0.132685086	0.0694751	0.945287988	0.356380834	0.078551122
0.059	0.046520322	0.134145453	0.070294865	0.947417913	0.364220236	0.079452009
0.06	0.047045219	0.135564365	0.071087416	0.949087125	0.3720618	0.080332144
0.061	0.047576929	0.136941715	0.071852785	0.9503012	0.379902974	0.081191478
0.062	0.048116068	0.138277429	0.072591017	0.951066051	0.387741158	0.082029976
0.063	0.048663254	0.139571459	0.073302177	0.951387918	0.395573708	0.082847613
0.064	0.0492191	0.140823787	0.073986342	0.951273354	0.403397939	0.083644376
0.065	0.049784216	0.142034422	0.074643604	0.950729212	0.41121112	0.084420262
0.066	0.050359206	0.143203406	0.075274072	0.94976263	0.419010481	0.08517528
0.067	0.050944669	0.144330805	0.075877868	0.948381021	0.426793216	0.085909447
0.068	0.051541194	0.145416715	0.076455129	0.946592053	0.434556479	0.086622792
0.069	0.052149364	0.146461261	0.077006005	0.944403643	0.442297391	0.087315352
0.07	0.052769748	0.147464597	0.077530663	0.941823934	0.450013041	0.087987172
0.071	0.053402907	0.148426902	0.07802928	0.938861289	0.457700485	0.088638309
0.072	0.054049387	0.149348385	0.078502051	0.935524271	0.465356752	0.089268826
0.073	0.054709722	0.150229283	0.07894918	0.931821634	0.472978844	0.089878796
0.074	0.05538443	0.151069859	0.079370888	0.927762302	0.48056374	0.090468296
0.075	0.056074014	0.151870404	0.079767408	0.923355363	0.488108395	0.091037417
0.076	0.056778958	0.152631236	0.080138986	0.918610048	0.495609747	0.091586251
0.077	0.057499728	0.1533527	0.08048588	0.91353572	0.503064713	0.092114902
0.078	0.058236772	0.154035167	0.080808362	0.908141862	0.510470199	0.092623478
0.079	0.058990518	0.154679035	0.081106716	0.90243806	0.517823095	0.093112096
0.08	0.059761369	0.155284726	0.081381238	0.896433991	0.525120284	0.093580878
0.081	0.060549709	0.15585269	0.081632238	0.890139408	0.532358638	0.094029953
0.082	0.061355898	0.1563834	0.081860034	0.883564132	0.539535027	0.094459458
0.083	0.062180271	0.156877356	0.08206496	0.876718032	0.546646317	0.094869533
0.084	0.063023138	0.157335078	0.082247357	0.869611016	0.553689372	0.095260328
0.085	0.063884784	0.157757115	0.082407582	0.862253022	0.56066106	0.095631997
0.086	0.064765466	0.158144035	0.082545999	0.854653997	0.567558254	0.095984702
0.087	0.065665416	0.158496429	0.082662985	0.846823895	0.574377834	0.096318609
0.088	0.066584835	0.158814912	0.082758925	0.838772658	0.581116688	0.096633892
0.089	0.067523897	0.159100118	0.082834216	0.83051021	0.587771719	0.096930731
0.09	0.068482746	0.159352703	0.082889264	0.822046441	0.594339843	0.097209312
0.091	0.069461497	0.15957334	0.082924483	0.813391204	0.600817994	0.097469828
0.092	0.070460235	0.159762724	0.082940298	0.804554296	0.607203126	0.097712478
0.093	0.071479012	0.159921567	0.082937141	0.795545456	0.613492215	0.097937468
0.094	0.072517852	0.160050596	0.082915453	0.786374351	0.61968226	0.098145011
0.095	0.073576746	0.160150558	0.08287568	0.777050568	0.625770289	0.098335327
0.096	0.074655653	0.160222213	0.082818279	0.767583606	0.631753356	0.098508642
0.097	0.075754501	0.160266337	0.082743711	0.757982867	0.637628548	0.09866519
0.098	0.076873184	0.160283717	0.082652443	0.74825765	0.643392984	0.098805214
0.099	0.078011568	0.160275156	0.082544948	0.738417139	0.649043817	0.098928962
0.1	0.079169482	0.160241466	0.082421705	0.728470401	0.654578237	0.09903669
0.101	0.080346726	0.160183471	0.082283196	0.718426375	0.65999347	0.099128663
0.102	0.081543066	0.160102002	0.082129908	0.708293869	0.665286783	0.099205153
0.103	0.082758237	0.159997902	0.081962329	0.698081549	0.670455482	0.099266442
0.104	0.083991942	0.159872017	0.081780952	0.687797939	0.675496915	0.099312817
0.105	0.085243852	0.159725203	0.08158627	0.677451412	0.680408471	0.099344577
0.106	0.086513606	0.159558318	0.081378778	0.667050184	0.685187584	0.099362027
0.107	0.087800813	0.159372225	0.081158973	0.656602312	0.689831732	0.099365482
0.108	0.089105049	0.159167787	0.080927348	0.64611569	0.694338437	0.099355264
0.109	0.090425863	0.158945871	0.080684398	0.635598041	0.698705268	0.099331706
0.11	0.09176277	0.158707341	0.080430617	0.625056917	0.702929839	0.09929515
0.111	0.093115259	0.158453062	0.080166495	0.614499696	0.707009812	0.099245946
0.112	0.094482788	0.158183892	0.079892519	0.603933574	0.710942898	0.099184454
0.113	0.095864786	0.157900689	0.079609175	0.593365571	0.714726853	0.099111041
0.114	0.097260656	0.157604302	0.079316941	0.58280252	0.718359486	0.099026088
0.115	0.098669771	0.157295573	0.079016293	0.572251071	0.721838652	0.098929981
0.116	0.100091481	0.156975338	0.0787077	0.561717688	0.725162261	0.098823118
0.117	0.101525106	0.156644419	0.078391626	0.551208646	0.728328271	0.098705905
0.118	0.102969943	0.156303631	0.078068527	0.540730034	0.731334693	0.09857876
0.119	0.104425265	0.155953773	0.077738853	0.530287751	0.734179592	0.098442108
0.12	0.105890319	0.15559563	0.077403046	0.519887507	0.736861088	0.098296384
0.121	0.10736433	0.155229976	0.077061537	0.509534822	0.739377354	0.098142035
0.122	0.108846501	0.154857562	0.076714752	0.499235031	0.741726622	0.097979515
0.123	0.110336013	0.154479126	0.076363105	0.488993277	0.743907181	0.097809287
0.124	0.111832026	0.154095386	0.076007001	0.478814519	0.74591738	0.097631826
0.125	0.113333681	0.153707038	0.075646834	0.46870353	0.747755626	0.097447614
0.126	0.114840097	0.153314759	0.075282988	0.458664898	0.749420391	0.097257144
0.127	0.116350378	0.152919202	0.074915835	0.448703029	0.75091021	0.097060917
0.128	0.117863608	0.152520996	0.074545737	0.438822147	0.752223683	0.096859443
0.129	0.119378856	0.152120748	0.074173043	0.429026298	0.753359479	0.09665324
0.13	0.120895172	0.151719037	0.07379809	0.419319351	0.754316335	0.096442837
0.131	0.122411592	0.151316419	0.073421203	0.409705	0.755093059	0.096228769
0.132	0.12392714	0.150913419	0.073042695	0.400186767	0.755688533	0.096011581
0.133	0.125440821	0.150510537	0.072662864	0.390768006	0.756101715	0.095791823
0.134	0.126951632	0.150108243	0.072281999	0.381451901	0.756331639	0.095570055
0.135	0.128458553	0.149706979	0.071900372	0.372241474	0.75637742	0.095346843
0.136	0.129960556	0.149307157	0.071518244	0.363139584	0.756238255	0.095122763
0.137	0.1314566	0.148909159	0.071135863	0.354148934	0.755913424	0.094898392
0.138	0.132945635	0.148513334	0.070753463	0.345272069	0.755402295	0.094674318
0.139	0.134426601	0.148120003	0.070371266	0.336511384	0.754704324	0.094451133
0.14	0.135898429	0.147729455	0.06998948	0.327869121	0.753819058	0.094229434
0.141	0.137360043	0.147341947	0.069608299	0.319347381	0.752746138	0.094009825
